<svg id="Layer_1" data-name="Layer 1" xmlns="http://www.w3.org/2000/svg" viewBox="0 0 100 130"><defs><style>.cls-1{fill:none;}.cls-2{fill:#0096e6;}.cls-3{fill:#fff;}</style></defs><title>DOC</title><polygon class="cls-1" points="71.51 3.1 71.5 3.09 71.5 29.02 71.51 29.02 71.51 3.1"/><path class="cls-1" d="M97.59,31.34H70.34a1.16,1.16,0,0,1-1.16-1.16V2.32H3.48c-1,0-1.06,1.65-1.06,2.16V90.54H97.59Zm-32.5,5.8H86a2.33,2.33,0,0,1,0,4.65H65.09a2.33,2.33,0,0,1,0-4.65Zm-10.93.68a2.35,2.35,0,1,1-.67,1.64A2.43,2.43,0,0,1,54.16,37.82Zm-5.32,1.64a2.33,2.33,0,0,1-2.32,2.33H28a2.33,2.33,0,0,1,0-4.65H46.52A2.33,2.33,0,0,1,48.84,39.46ZM14,25.54H28a2.32,2.32,0,1,1,0,4.64H14a2.32,2.32,0,1,1,0-4.64Zm0,11.6h4.65a2.33,2.33,0,0,1,0,4.65H14a2.33,2.33,0,0,1,0-4.65Zm0,11.61H28a2.32,2.32,0,0,1,0,4.64H14a2.32,2.32,0,0,1,0-4.64Zm0,11.61h20.9a2.32,2.32,0,0,1,0,4.64H14a2.32,2.32,0,0,1,0-4.64Zm1.65,15.57a2.33,2.33,0,0,1-4-1.64,2.33,2.33,0,0,1,4-1.65,2.38,2.38,0,0,1,.67,1.65A2.41,2.41,0,0,1,15.67,75.93Zm40.14.68H23.31a2.33,2.33,0,0,1,0-4.65h32.5a2.33,2.33,0,0,1,0,4.65ZM67.42,65H44.2a2.32,2.32,0,0,1,0-4.64H67.42a2.32,2.32,0,0,1,0,4.64ZM86,65H76.7a2.32,2.32,0,0,1,0-4.64H86A2.32,2.32,0,1,1,86,65Zm0-11.61H34.92a2.32,2.32,0,1,1,0-4.64H86a2.32,2.32,0,1,1,0,4.64Z"/><path class="cls-2" d="M72.29.6A2,2,0,0,0,70.85,0H3.48C1.6,0,.09,1.51.09,4.48V90.54h0V126.6s0,.08,0,.12v1c0,.76,1.42,2.21,3.22,2.3l.17,0h93l.18,0c1.79-.09,3.23-1.54,3.23-2.3V30.13c0-1.62-.24-2.13-.61-2.53ZM71.5,3.09h0V29h0ZM2.42,4.48c0-.51.07-2.16,1.06-2.16h65.7V30.18a1.16,1.16,0,0,0,1.16,1.16H97.59v59.2H2.42ZM17.2,124.16V98.46h6.72q6,0,9.64,2.73t3.62,10q0,7.13-3.55,10a13.84,13.84,0,0,1-9.08,2.91ZM40,111.31a17.24,17.24,0,0,1,1.39-7.19,10.56,10.56,0,0,1,4-4.64,11.17,11.17,0,0,1,6.07-1.62,11.41,11.41,0,0,1,6.09,1.58A10.23,10.23,0,0,1,61.51,104a19.89,19.89,0,0,1,0,14.51,10.37,10.37,0,0,1-3.94,4.62,11.33,11.33,0,0,1-6.09,1.6,11.51,11.51,0,0,1-6.11-1.58,10.09,10.09,0,0,1-3.95-4.61A17.42,17.42,0,0,1,40,111.31Zm33,6.89a5.13,5.13,0,0,0,4.4,2.25,6.33,6.33,0,0,0,2.64-.54,12.89,12.89,0,0,0,2.49-1.54l2.52,3.15a10.93,10.93,0,0,1-7.87,3.24,11.56,11.56,0,0,1-6.06-1.56,10.47,10.47,0,0,1-4-4.59,17,17,0,0,1-1.44-7.34,16.26,16.26,0,0,1,1.48-7.22,10.78,10.78,0,0,1,4.09-4.61,11.1,11.1,0,0,1,5.87-1.58,11.57,11.57,0,0,1,4.19.69,12.57,12.57,0,0,1,3.49,2.1l-2.71,3.16A7.3,7.3,0,0,0,77.44,102a5.1,5.1,0,0,0-4.36,2.25c-1.08,1.49-1.62,3.84-1.62,7S72,116.7,73.08,118.2Z"/><path class="cls-2" d="M14,30.18H28a2.32,2.32,0,1,0,0-4.64H14a2.32,2.32,0,1,0,0,4.64Z"/><path class="cls-2" d="M65.09,41.79H86a2.33,2.33,0,0,0,0-4.65H65.09a2.33,2.33,0,0,0,0,4.65Z"/><path class="cls-2" d="M55.81,41.79a2.45,2.45,0,0,0,1.65-.68,2.32,2.32,0,1,0-3.3,0A2.45,2.45,0,0,0,55.81,41.79Z"/><path class="cls-2" d="M25.63,39.46A2.32,2.32,0,0,0,28,41.79H46.52a2.33,2.33,0,0,0,0-4.65H28A2.32,2.32,0,0,0,25.63,39.46Z"/><path class="cls-2" d="M12.38,72.64a2.33,2.33,0,0,0,1.64,4,2.3,2.3,0,0,0,2.32-2.32,2.38,2.38,0,0,0-.67-1.65A2.42,2.42,0,0,0,12.38,72.64Z"/><path class="cls-2" d="M55.81,72H23.31a2.33,2.33,0,0,0,0,4.65h32.5a2.33,2.33,0,0,0,0-4.65Z"/><path class="cls-2" d="M14,41.79h4.65a2.33,2.33,0,0,0,0-4.65H14a2.33,2.33,0,0,0,0,4.65Z"/><path class="cls-2" d="M86,48.75H34.92a2.32,2.32,0,1,0,0,4.64H86a2.32,2.32,0,1,0,0-4.64Z"/><path class="cls-2" d="M14,53.39H28a2.32,2.32,0,0,0,0-4.64H14a2.32,2.32,0,0,0,0,4.64Z"/><path class="cls-2" d="M86,60.36H76.7a2.32,2.32,0,0,0,0,4.64H86a2.32,2.32,0,1,0,0-4.64Z"/><path class="cls-2" d="M67.42,60.36H44.2a2.32,2.32,0,0,0,0,4.64H67.42a2.32,2.32,0,0,0,0-4.64Z"/><path class="cls-2" d="M14,65h20.9a2.32,2.32,0,0,0,0-4.64H14A2.32,2.32,0,0,0,14,65Z"/><path class="cls-2" d="M51.48,120.67a4.69,4.69,0,0,0,4.23-2.21c.95-1.47,1.42-3.86,1.42-7.15s-.47-5.68-1.42-7.15a5.16,5.16,0,0,0-8.48,0c-1,1.49-1.43,3.86-1.43,7.13s.48,5.65,1.45,7.13A4.71,4.71,0,0,0,51.48,120.67Z"/><path class="cls-2" d="M28.3,103.16a8.12,8.12,0,0,0-3.52-.69H22.66v17.68h2.23a6.18,6.18,0,0,0,4.88-2q1.73-2,1.73-7a13.51,13.51,0,0,0-.87-5.42A5,5,0,0,0,28.3,103.16Z"/><path class="cls-3" d="M37.18,111.2q0-7.28-3.62-10t-9.64-2.73H17.2v25.7h7.35a13.84,13.84,0,0,0,9.08-2.91Q37.19,118.32,37.18,111.2Zm-7.41,7a6.18,6.18,0,0,1-4.88,2H22.66V102.47h2.12a8.12,8.12,0,0,1,3.52.69,5,5,0,0,1,2.33,2.62,13.51,13.51,0,0,1,.87,5.42Q31.5,116.26,29.77,118.2Z"/><path class="cls-3" d="M45.37,123.18a11.51,11.51,0,0,0,6.11,1.58,11.33,11.33,0,0,0,6.09-1.6,10.37,10.37,0,0,0,3.94-4.62,19.89,19.89,0,0,0,0-14.51,10.23,10.23,0,0,0-3.94-4.59,11.41,11.41,0,0,0-6.09-1.58,11.17,11.17,0,0,0-6.07,1.62,10.56,10.56,0,0,0-4,4.64A17.24,17.24,0,0,0,40,111.31a17.42,17.42,0,0,0,1.38,7.26A10.09,10.09,0,0,0,45.37,123.18Zm1.86-19a5.16,5.16,0,0,1,8.48,0c.95,1.47,1.42,3.86,1.42,7.15s-.47,5.68-1.42,7.15a5.14,5.14,0,0,1-8.46,0q-1.45-2.22-1.45-7.13C45.8,108,46.27,105.67,47.23,104.18Z"/><path class="cls-3" d="M77.44,102a7.3,7.3,0,0,1,4.68,1.82l2.71-3.16a12.57,12.57,0,0,0-3.49-2.1,11.57,11.57,0,0,0-4.19-.69,11.1,11.1,0,0,0-5.87,1.58,10.78,10.78,0,0,0-4.09,4.61,16.26,16.26,0,0,0-1.48,7.22,17,17,0,0,0,1.44,7.34,10.47,10.47,0,0,0,4,4.59,11.56,11.56,0,0,0,6.06,1.56,10.93,10.93,0,0,0,7.87-3.24l-2.52-3.15a12.89,12.89,0,0,1-2.49,1.54,6.33,6.33,0,0,1-2.64.54,5.13,5.13,0,0,1-4.4-2.25q-1.62-2.25-1.62-6.93c0-3.19.54-5.54,1.62-7A5.1,5.1,0,0,1,77.44,102Z"/></svg>