<svg id="Layer_1" data-name="Layer 1" xmlns="http://www.w3.org/2000/svg" viewBox="0 0 100 130"><defs><style>.cls-1{fill:none;}.cls-2{fill:#cc4b4c;}.cls-3{fill:#fff;}</style></defs><title>PDF</title><polygon class="cls-1" points="71.51 3.1 71.5 3.09 71.5 29.02 71.51 29.02 71.51 3.1"/><path class="cls-1" d="M97.59,31.34H70.34a1.16,1.16,0,0,1-1.16-1.16V2.32H3.48c-1,0-1.06,1.65-1.06,2.16V90.54H97.59Zm-32.5,5.8H86a2.33,2.33,0,0,1,0,4.65H65.09a2.33,2.33,0,0,1,0-4.65Zm-10.93.68a2.35,2.35,0,1,1-.67,1.64A2.43,2.43,0,0,1,54.16,37.82Zm-5.32,1.64a2.33,2.33,0,0,1-2.32,2.33H28a2.33,2.33,0,0,1,0-4.65H46.52A2.33,2.33,0,0,1,48.84,39.46ZM14,25.54H28a2.32,2.32,0,1,1,0,4.64H14a2.32,2.32,0,1,1,0-4.64Zm0,11.6h4.65a2.33,2.33,0,0,1,0,4.65H14a2.33,2.33,0,0,1,0-4.65Zm0,11.61H28a2.32,2.32,0,0,1,0,4.64H14a2.32,2.32,0,0,1,0-4.64Zm0,11.61h20.9a2.32,2.32,0,0,1,0,4.64H14a2.32,2.32,0,0,1,0-4.64Zm1.65,15.57a2.33,2.33,0,0,1-4-1.64,2.33,2.33,0,0,1,4-1.65,2.38,2.38,0,0,1,.67,1.65A2.41,2.41,0,0,1,15.67,75.93Zm40.14.68H23.31a2.33,2.33,0,0,1,0-4.65h32.5a2.33,2.33,0,0,1,0,4.65ZM67.42,65H44.2a2.32,2.32,0,0,1,0-4.64H67.42a2.32,2.32,0,0,1,0,4.64ZM86,65H76.7a2.32,2.32,0,0,1,0-4.64H86A2.32,2.32,0,1,1,86,65Zm0-11.61H34.92a2.32,2.32,0,1,1,0-4.64H86a2.32,2.32,0,1,1,0,4.64Z"/><path class="cls-2" d="M72.29.6A2,2,0,0,0,70.85,0H3.48C1.6,0,.09,1.51.09,4.48V90.54h0V126.6s0,.08,0,.12v1c0,.76,1.43,2.21,3.22,2.3l.17,0h93l.18,0c1.79-.09,3.23-1.54,3.23-2.3V30.13c0-1.62-.24-2.13-.61-2.53ZM71.5,3.09h0V29h0ZM2.42,4.48c0-.51.07-2.16,1.06-2.16h65.7V30.18a1.16,1.16,0,0,0,1.16,1.16H97.59v59.2H2.42Zm18.1,119.68V98.46h8c3.34,0,5.94.69,7.78,2.08a7.25,7.25,0,0,1,2.77,6.2c0,2.87-.92,5-2.75,6.48a11.51,11.51,0,0,1-7.35,2.18H26v8.76Zm22.1,0V98.46h6.72q6,0,9.64,2.73t3.62,10q0,7.13-3.54,10A13.85,13.85,0,0,1,50,124.16ZM80,109.71v4H72.23v10.47H66.77V98.46H81.7l-.6,4H72.23v7.28Z"/><path class="cls-2" d="M14,30.18H28a2.32,2.32,0,1,0,0-4.64H14a2.32,2.32,0,1,0,0,4.64Z"/><path class="cls-2" d="M65.09,41.79H86a2.33,2.33,0,0,0,0-4.65H65.09a2.33,2.33,0,0,0,0,4.65Z"/><path class="cls-2" d="M55.81,41.79a2.45,2.45,0,0,0,1.65-.68,2.32,2.32,0,1,0-3.3,0A2.45,2.45,0,0,0,55.81,41.79Z"/><path class="cls-2" d="M25.63,39.46A2.32,2.32,0,0,0,28,41.79H46.52a2.33,2.33,0,0,0,0-4.65H28A2.32,2.32,0,0,0,25.63,39.46Z"/><path class="cls-2" d="M12.38,72.64a2.33,2.33,0,0,0,1.64,4,2.3,2.3,0,0,0,2.32-2.32,2.38,2.38,0,0,0-.67-1.65A2.42,2.42,0,0,0,12.38,72.64Z"/><path class="cls-2" d="M55.81,72H23.31a2.33,2.33,0,0,0,0,4.65h32.5a2.33,2.33,0,0,0,0-4.65Z"/><path class="cls-2" d="M14,41.79h4.65a2.33,2.33,0,0,0,0-4.65H14a2.33,2.33,0,0,0,0,4.65Z"/><path class="cls-2" d="M86,48.75H34.92a2.32,2.32,0,1,0,0,4.64H86a2.32,2.32,0,1,0,0-4.64Z"/><path class="cls-2" d="M14,53.39H28a2.32,2.32,0,0,0,0-4.64H14a2.32,2.32,0,0,0,0,4.64Z"/><path class="cls-2" d="M86,60.36H76.7a2.32,2.32,0,0,0,0,4.64H86a2.32,2.32,0,1,0,0-4.64Z"/><path class="cls-2" d="M67.42,60.36H44.2a2.32,2.32,0,0,0,0,4.64H67.42a2.32,2.32,0,0,0,0-4.64Z"/><path class="cls-2" d="M14,65h20.9a2.32,2.32,0,0,0,0-4.64H14A2.32,2.32,0,0,0,14,65Z"/><path class="cls-2" d="M53.73,103.16a8.17,8.17,0,0,0-3.53-.69H48.08v17.68h2.23a6.16,6.16,0,0,0,4.88-2c1.16-1.3,1.73-3.63,1.73-7a13.51,13.51,0,0,0-.87-5.42A5,5,0,0,0,53.73,103.16Z"/><path class="cls-2" d="M32.11,110.31a4.47,4.47,0,0,0,1.26-3.57c0-2.89-1.65-4.34-5-4.34H26v9h2.49A5.44,5.44,0,0,0,32.11,110.31Z"/><path class="cls-3" d="M28.92,115.4a11.51,11.51,0,0,0,7.35-2.18c1.83-1.44,2.75-3.61,2.75-6.48a7.25,7.25,0,0,0-2.77-6.2c-1.84-1.39-4.44-2.08-7.78-2.08H20.52v25.7H26V115.4ZM26,102.4H28.4c3.32,0,5,1.45,5,4.34a4.47,4.47,0,0,1-1.26,3.57,5.44,5.44,0,0,1-3.64,1.08H26Z"/><path class="cls-3" d="M62.6,111.2q0-7.28-3.62-10t-9.64-2.73H42.62v25.7H50a13.85,13.85,0,0,0,9.08-2.91Q62.6,118.32,62.6,111.2Zm-7.41,7a6.16,6.16,0,0,1-4.88,2H48.08V102.47H50.2a8.17,8.17,0,0,1,3.53.69,5,5,0,0,1,2.32,2.62,13.51,13.51,0,0,1,.87,5.42C56.92,114.57,56.35,116.9,55.19,118.2Z"/><polygon class="cls-3" points="81.1 102.43 81.7 98.46 66.77 98.46 66.77 124.16 72.23 124.16 72.23 113.69 79.95 113.69 79.95 109.71 72.23 109.71 72.23 102.43 81.1 102.43"/></svg>