<?xml version="1.0" encoding="utf-8"?>
<!-- Generator: Adobe Illustrator 21.0.0, SVG Export Plug-In . SVG Version: 6.00 Build 0)  -->
<svg version="1.1" id="Layer_1" xmlns="http://www.w3.org/2000/svg" xmlns:xlink="http://www.w3.org/1999/xlink" x="0px" y="0px"
	 viewBox="0 0 100 130" style="enable-background:new 0 0 100 130;" xml:space="preserve">
<style type="text/css">
	.st0{fill:none;}
	.st1{fill:#009952;}
	.st2{fill:#FFFFFF;}
</style>
<title>XLS</title>
<g>
	<path class="st0" d="M97.6,31.3H70.3c-0.6,0-1.2-0.5-1.2-1.2c0,0,0,0,0,0V2.3H3.5c-1,0-1.1,1.6-1.1,2.2v86.1h95.2V31.3z M65.1,37.1
		H86c1.3,0.1,2.3,1.2,2.2,2.5c-0.1,1.2-1,2.1-2.2,2.2H65.1c-1.3-0.1-2.3-1.2-2.2-2.5C63,38.1,63.9,37.2,65.1,37.1z M54.2,37.8
		c0.9-0.9,2.4-0.9,3.3,0c0.9,0.9,0.9,2.4,0,3.3c-0.9,0.9-2.4,0.9-3.3,0c-0.5-0.4-0.7-1-0.7-1.7C53.5,38.8,53.7,38.3,54.2,37.8z
		 M48.8,39.5c0,1.3-1,2.3-2.3,2.3H28c-1.3-0.1-2.3-1.2-2.2-2.5c0.1-1.2,1-2.1,2.2-2.2h18.5C47.8,37.1,48.8,38.2,48.8,39.5z M14,25.5
		h14c1.3,0,2.3,1,2.3,2.3c0,1.3-1,2.3-2.3,2.3c0,0,0,0,0,0H14c-1.3,0-2.3-1-2.3-2.3C11.7,26.6,12.7,25.5,14,25.5
		C14,25.5,14,25.5,14,25.5z M14,37.1h4.6c1.3,0.1,2.3,1.2,2.2,2.5c-0.1,1.2-1,2.1-2.2,2.2H14c-1.3-0.1-2.3-1.2-2.2-2.5
		C11.9,38.1,12.8,37.2,14,37.1z M14,48.8h14c1.3,0,2.3,1,2.3,2.3c0,1.3-1,2.3-2.3,2.3H14c-1.3,0-2.3-1-2.3-2.3
		C11.7,49.8,12.7,48.8,14,48.8z M14,60.4h20.9c1.3,0,2.3,1,2.3,2.3c0,1.3-1,2.3-2.3,2.3H14c-1.3,0-2.3-1-2.3-2.3
		C11.7,61.4,12.7,60.4,14,60.4z M15.6,75.9c-0.9,0.9-2.4,0.9-3.3,0c-0.5-0.4-0.7-1.1-0.7-1.7c0-1.3,1-2.3,2.3-2.4
		c0.6,0,1.3,0.2,1.7,0.7c0.4,0.4,0.7,1,0.7,1.7C16.3,74.9,16.1,75.5,15.6,75.9L15.6,75.9z M55.8,76.6H23.3c-1.3-0.1-2.3-1.2-2.2-2.5
		c0.1-1.2,1-2.1,2.2-2.2h32.5c1.3,0.1,2.3,1.2,2.2,2.5C57.9,75.6,57,76.5,55.8,76.6L55.8,76.6z M67.4,65H44.2c-1.3,0-2.3-1-2.3-2.3
		c0-1.3,1-2.3,2.3-2.3h23.2c1.3,0,2.3,1,2.3,2.3C69.7,64,68.7,65,67.4,65z M86,65h-9.3c-1.3,0-2.3-1-2.3-2.3c0-1.3,1-2.3,2.3-2.3H86
		c1.3,0,2.3,1,2.3,2.3C88.3,64,87.3,65,86,65C86,65,86,65,86,65z M86,53.4H34.9c-1.3,0-2.3-1-2.3-2.3s1-2.3,2.3-2.3c0,0,0,0,0,0H86
		c1.3,0,2.3,1,2.3,2.3C88.3,52.4,87.3,53.4,86,53.4C86,53.4,86,53.4,86,53.4z"/>
	<polygon class="st0" points="71.5,3.1 71.5,3.1 71.5,29 71.5,29 	"/>
	<path class="st1" d="M99.3,27.6l-27-27C71.9,0.2,71.4,0,70.8,0H3.5C1.6,0,0.1,1.5,0.1,4.5v86.1l0,0v36.1c0,0,0,0.1,0,0.1v1
		c0,0.8,1.4,2.2,3.2,2.3h0.2h93h0.2c1.8-0.1,3.2-1.5,3.2-2.3V30.1C99.9,28.5,99.7,28,99.3,27.6z M71.5,3.1L71.5,3.1V29l0,0V3.1z
		 M2.4,4.5c0-0.5,0.1-2.2,1.1-2.2h65.7v27.9c0,0.6,0.5,1.2,1.2,1.2l0,0h27.2v59.2H2.4V4.5z M20.2,98.5h6l4,8.6l4.2-8.6h5.8
		l-6.8,11.8l7.5,13.8h-6L30.2,114l-4.7,10.2h-5.8l7.3-13.7L20.2,98.5z M59.2,119.8l-0.6,4.4h-15V98.5h5.5v21.3L59.2,119.8z
		 M73.1,115.4c-0.4-0.5-0.9-1-1.5-1.3c-1-0.5-2-0.9-3-1.2c-2.2-0.5-4.3-1.6-6-3.1c-2.2-2.4-2.4-5.9-0.7-8.6c0.8-1.1,1.9-2,3.2-2.5
		c1.5-0.6,3.1-0.9,4.7-0.9c1.6,0,3.3,0.2,4.8,0.8c1.4,0.6,2.7,1.4,3.8,2.4l-2.6,3c-0.8-0.7-1.8-1.2-2.8-1.6
		c-0.9-0.4-1.9-0.5-2.9-0.5c-1-0.1-1.9,0.2-2.7,0.7c-0.7,0.5-1,1.2-1,2.1c0,0.5,0.1,1.1,0.4,1.5c0.4,0.5,0.9,0.9,1.5,1.1
		c1,0.5,2.1,0.9,3.2,1.2c2.1,0.6,4.1,1.6,5.7,3c1.3,1.4,2,3.2,1.9,5.1c0,1.5-0.4,2.9-1.2,4.2c-0.9,1.3-2.1,2.2-3.4,2.8
		c-1.7,0.7-3.5,1-5.3,1c-1.9,0-3.7-0.3-5.4-1c-1.5-0.6-2.9-1.5-4.1-2.6l2.8-3.1c0.9,0.8,2,1.5,3.1,2c1.1,0.4,2.3,0.7,3.5,0.7
		c1.1,0.1,2.3-0.3,3.2-0.9c0.8-0.6,1.3-1.6,1.2-2.6C73.6,116.5,73.5,115.9,73.1,115.4L73.1,115.4z"/>
	<path class="st1" d="M14,30.2h14c1.3,0,2.3-1,2.3-2.3c0-1.3-1-2.3-2.3-2.3c0,0,0,0,0,0H14c-1.3,0-2.3,1-2.3,2.3
		C11.7,29.1,12.7,30.2,14,30.2C14,30.2,14,30.2,14,30.2z"/>
	<path class="st1" d="M65.1,41.8H86c1.3-0.1,2.3-1.2,2.2-2.5c-0.1-1.2-1-2.1-2.2-2.2H65.1c-1.3,0.1-2.3,1.2-2.2,2.5
		C63,40.8,63.9,41.7,65.1,41.8z"/>
	<path class="st1" d="M55.8,41.8c0.6,0,1.2-0.3,1.7-0.7c0.9-0.9,0.9-2.4,0-3.3c-0.9-0.9-2.4-0.9-3.3,0c-0.9,0.9-0.9,2.4,0,3.3
		C54.6,41.5,55.2,41.8,55.8,41.8z"/>
	<path class="st1" d="M25.6,39.5c0,1.3,1,2.3,2.3,2.3c0,0,0,0,0.1,0h18.5c1.3-0.1,2.3-1.2,2.2-2.5c-0.1-1.2-1-2.1-2.2-2.2H28
		C26.7,37.1,25.7,38.1,25.6,39.5C25.6,39.4,25.6,39.4,25.6,39.5z"/>
	<path class="st1" d="M12.4,72.6c-0.9,0.9-0.9,2.4,0,3.3c0.4,0.5,1.1,0.7,1.7,0.7c1.3,0,2.3-1,2.3-2.3c0,0,0,0,0,0
		c0-0.6-0.2-1.2-0.7-1.7C14.7,71.8,13.3,71.8,12.4,72.6z"/>
	<path class="st1" d="M55.8,72H23.3c-1.3,0.1-2.3,1.2-2.2,2.5c0.1,1.2,1,2.1,2.2,2.2h32.5c1.3-0.1,2.3-1.2,2.2-2.5
		C57.9,73,57,72.1,55.8,72z"/>
	<path class="st1" d="M14,41.8h4.6c1.3-0.1,2.3-1.2,2.2-2.5c-0.1-1.2-1-2.1-2.2-2.2H14c-1.3,0.1-2.3,1.2-2.2,2.5
		C11.9,40.8,12.8,41.7,14,41.8z"/>
	<path class="st1" d="M86,48.8H34.9c-1.3,0-2.3,1-2.3,2.3s1,2.3,2.3,2.3c0,0,0,0,0,0H86c1.3,0,2.3-1,2.3-2.3
		C88.3,49.8,87.3,48.8,86,48.8C86,48.8,86,48.8,86,48.8z"/>
	<path class="st1" d="M14,53.4h14c1.3,0,2.3-1,2.3-2.3c0-1.3-1-2.3-2.3-2.3H14c-1.3,0-2.3,1-2.3,2.3C11.7,52.4,12.7,53.4,14,53.4z"
		/>
	<path class="st1" d="M86,60.4h-9.3c-1.3,0-2.3,1-2.3,2.3c0,1.3,1,2.3,2.3,2.3H86c1.3,0,2.3-1,2.3-2.3C88.3,61.4,87.3,60.4,86,60.4
		C86,60.4,86,60.4,86,60.4z"/>
	<path class="st1" d="M67.4,60.4H44.2c-1.3,0-2.3,1-2.3,2.3c0,1.3,1,2.3,2.3,2.3h23.2c1.3,0,2.3-1,2.3-2.3
		C69.7,61.4,68.7,60.4,67.4,60.4z"/>
	<path class="st1" d="M14,65h20.9c1.3,0,2.3-1,2.3-2.3c0-1.3-1-2.3-2.3-2.3H14c-1.3,0-2.3,1-2.3,2.3C11.7,64,12.7,65,14,65z"/>
	<polygon class="st2" points="25.4,124.2 30.2,114 35,124.2 41,124.2 33.5,110.3 40.3,98.5 34.5,98.5 30.2,107 26.2,98.5 20.2,98.5 
		26.9,110.5 19.6,124.2 	"/>
	<polygon class="st2" points="43.6,98.5 43.6,124.2 58.7,124.2 59.2,119.8 49.1,119.8 49.1,98.5 	"/>
	<path class="st2" d="M72.4,119.7c-0.9,0.7-2.1,1-3.2,0.9c-1.2,0-2.4-0.2-3.5-0.7c-1.1-0.5-2.2-1.1-3.1-1.9l-2.8,3.1
		c1.2,1.1,2.6,2,4.1,2.6c1.7,0.7,3.6,1,5.4,1c1.8,0,3.6-0.3,5.3-1c1.4-0.6,2.6-1.6,3.4-2.8c0.8-1.2,1.2-2.7,1.2-4.2
		c0.1-1.9-0.6-3.8-1.9-5.1c-1.7-1.4-3.6-2.4-5.7-3c-1.1-0.3-2.2-0.7-3.2-1.2c-0.6-0.2-1.1-0.6-1.5-1.1c-0.3-0.5-0.4-1-0.4-1.5
		c0-0.8,0.3-1.6,1-2.1c0.8-0.5,1.8-0.8,2.7-0.7c1,0,2,0.2,2.9,0.5c1,0.4,1.9,0.9,2.8,1.6l2.6-3c-1.1-1.1-2.4-1.9-3.8-2.4
		c-1.6-0.6-3.2-0.8-4.8-0.8c-1.6,0-3.2,0.3-4.7,0.9c-1.3,0.5-2.4,1.4-3.2,2.5c-1.8,2.7-1.5,6.2,0.7,8.6c1.7,1.5,3.8,2.6,6,3.1
		c1,0.3,2,0.7,3,1.2c0.6,0.3,1.1,0.7,1.5,1.3c0.3,0.5,0.5,1.1,0.4,1.7C73.6,118.1,73.2,119.1,72.4,119.7z"/>
</g>
</svg>
