<svg id="Layer_1" data-name="Layer 1" xmlns="http://www.w3.org/2000/svg" viewBox="0 0 1080 1080"><defs><style>.cls-1{fill:#fff;}.cls-2{fill:#263343;}.cls-3{fill:#ff453e;}</style></defs><title>FLowingo Color inverted</title><rect class="cls-1" x="-0.07" y="0.42" width="1080.07" height="1080.07"/><path class="cls-2" d="M79.84,204.89H52V138.52H79.84v-4.86c0-27.43,6.2-47.78,20.36-61.94,14.6-14.6,34.06-20.79,62.82-20.79,25.22,0,41.58,2.65,54.42,6.63v59.29A97.54,97.54,0,0,0,186,112c-15.48,0-24.37,7.08-24.37,22.56v5.75h55.79v64.6H161.65V377H79.84ZM267.65,54h83.62V377H267.65Z"/><path class="cls-2" d="M384.9,258.42v-.89c0-68.13,55.75-125.2,132.28-125.2S649,188.52,649,256.65v.88c0,68.14-55.74,125.21-132.72,125.21C440.2,382.74,384.9,326.55,384.9,258.42Zm182.72,0v-.89c0-29.64-21.68-54.41-51.32-54.41-30.53,0-50,24.33-50,53.53v.88c0,29.2,21.24,54,50.88,54C547.71,311.51,567.62,287.18,567.62,258.42Z"/><path class="cls-2" d="M59.05,1002.55l27-55.74c25.66,14.15,51.32,22.56,83.61,22.56,41.59,0,62.38-20.79,62.38-58.84v-9.29c-16.81,19.46-38.93,35.83-73.44,35.83C99.75,937.07,52,894.6,52,826v-.89c0-69,48.67-111.49,103.52-111.49,36.28,0,57.52,14.6,75.22,33.62V719h84.06V900.79c0,43.8-9.74,74.77-31,95.57-21.68,22.12-55.31,33.62-105.3,33.62C132.49,1030,93.56,1020.25,59.05,1002.55ZM232.48,826v-.89c0-26.54-20.8-46.45-49.11-46.45-28.76,0-49.11,19.91-49.11,46.89v.89c0,26.54,20.35,46,49.11,46S232.48,852.57,232.48,826Z"/><path class="cls-2" d="M350.6,839.74v-.88c0-68.14,55.74-125.21,132.28-125.21S614.72,769.84,614.72,838v.89C614.72,907,559,964.06,482,964.06,405.9,964.06,350.6,907.87,350.6,839.74Zm182.72,0v-.88c0-29.65-21.68-54.42-51.32-54.42-30.53,0-50,24.33-50,53.53v.89c0,29.2,21.24,54,50.88,54C513.41,892.83,533.32,868.5,533.32,839.74Z"/><path class="cls-3" d="M259.93,431.17h81.85l31.41,120.34,37.16-121.22h69l37.16,122.1,32.3-121.22h81L555.91,672.29H483.35L444.42,547.53,404.6,672.29H332.93Z"/><path class="cls-3" d="M790.82,431.17h84.06V464.8c15.49-19.91,37.61-38.93,71.68-38.93,50.87,0,81.4,33.62,81.4,88V670.52H944.34V540.89c0-26.54-13.71-40.7-34.07-40.7s-35.39,14.16-35.39,40.7V670.52H790.82Z"/><path class="cls-3" d="M659.4,877.78v80.53h84.07V877.78Z"/><path class="cls-3" d="M659.4,324.08v80.54h84.07V324.08Zm84.1,107.09V670.52l0,179.79H659.4l.48-419.14Z"/></svg>